<svg version="1.1" id="Layer_3" xmlns="http://www.w3.org/2000/svg" xmlns:xlink="http://www.w3.org/1999/xlink" x="0px" y="0px" viewBox="0 0 64 64" style="enable-background:new 0 0 64 64;" xml:space="preserve">
<g>
	<path d="M54,49c0.552,0,1-0.447,1-1V5c0-2.206-1.794-4-4-4H16c-3.86,0-7,3.141-7,7v44c0,4.963,4.038,9,9,9h21v1
		c0,0.404,0.244,0.77,0.617,0.924c0.374,0.156,0.804,0.069,1.09-0.217L44,59.414l3.293,3.293C47.484,62.898,47.74,63,48,63
		c0.129,0,0.259-0.024,0.383-0.076C48.756,62.77,49,62.404,49,62v-1h5c0.552,0,1-0.447,1-1v-4c0-0.553-0.448-1-1-1h-1v-6H54z M53,5
		v38H21V3h30C52.103,3,53,3.897,53,5z M11,8c0-2.757,2.243-5,5-5h3v40h-1c-2.826,0-5.349,1.312-7,3.356V8z M18,59
		c-3.86,0-7-3.141-7-7s3.14-7,7-7h35v2H18c-2.757,0-5,2.243-5,5s2.243,5,5,5h21v2H18z M15.184,53H39v2H18
		C16.698,55,15.598,54.161,15.184,53z M44.707,57.293c-0.391-0.391-1.023-0.391-1.414,0L41,59.586V53h6v6.586L44.707,57.293z M53,59
		h-4v-2h4V59z M49,55v-2h2v2H49z M51,51H15.184c0.414-1.161,1.514-2,2.816-2h33V51z" id="id_189" style="fill: rgb(219, 191, 9);"></path>
	<path d="M39.707,19.293L38.414,18L40,16.414l3.086,3.086l-0.793,0.793c-0.391,0.391-0.391,1.023,0,1.414l4,4
		C46.488,25.902,46.744,26,47,26s0.512-0.098,0.707-0.293l3-3c0.391-0.391,0.391-1.023,0-1.414l-4-4
		c-0.391-0.391-1.023-0.391-1.414,0L44.5,18.086L41.414,15L43,13.414l1.293,1.293l1.414-1.414l-8-8l-1.414,1.414L37.586,8L33,12.586
		l-1.293-1.293l-1.414,1.414l8,8L39.707,19.293z M46,19.414L48.586,22L47,23.586L44.414,21L46,19.414z M39,9.414L41.586,12
		L37,16.586L34.414,14L39,9.414z" id="id_190" style="fill: rgb(219, 191, 9);"></path>
	<path d="M38,22H28c-0.552,0-1,0.447-1,1v3h-2v2h16v-2h-2v-3C39,22.447,38.552,22,38,22z M29,24h8v2h-8V24z" id="id_191" style="fill: rgb(219, 191, 9);"></path>
	<rect x="26.5" y="12.379" transform="matrix(0.7071 -0.7071 0.7071 0.7071 -2.1985 23.6924)" width="2" height="4.243" id="id_192" style="fill: rgb(219, 191, 9);"></rect>
	<rect x="24" y="18" width="4" height="2" id="id_193" style="fill: rgb(219, 191, 9);"></rect>
	<path d="M24,41h26c0.552,0,1-0.447,1-1v-8c0-0.553-0.448-1-1-1H24c-0.552,0-1,0.447-1,1v8C23,40.553,23.448,41,24,41z M25,33h24v6
		H25V33z" id="id_194" style="fill: rgb(219, 191, 9);"></path>
	<rect x="27" y="35" width="16" height="2" id="id_195" style="fill: rgb(219, 191, 9);"></rect>
	<rect x="45" y="35" width="2" height="2" id="id_196" style="fill: rgb(219, 191, 9);"></rect>
</g>
</svg>