<svg xmlns="http://www.w3.org/2000/svg" xml:space="preserve" width="512px" height="512px" version="1.1" style="shape-rendering:geometricPrecision; text-rendering:geometricPrecision; image-rendering:optimizeQuality; fill-rule:evenodd; clip-rule:evenodd" viewBox="0 0 512 512" xmlns:xlink="http://www.w3.org/1999/xlink">
 <defs>
  <style type="text/css">
   
    .fil0 {fill:black}
   
  </style>
 </defs>
 <g id="Layer_x0020_1">
  <metadata id="CorelCorpID_0Corel-Layer"></metadata>
  <g id="_469637360">
   <g>
    <path class="fil0" d="M281 453c-4,0 -7,-3 -7,-7l0 -358c0,-4 3,-7 7,-7 4,0 7,3 7,7l0 358c0,4 -3,7 -7,7zm-50 0c-4,0 -7,-3 -7,-7l0 -358c0,-4 3,-7 7,-7 4,0 7,3 7,7l0 358c0,4 -3,7 -7,7z" id="id_172" style="fill: rgb(219, 191, 9);"></path>
   </g>
   <g>
    <path class="fil0" d="M421 114c-12,0 -23,-6 -26,-19l-114 0c-4,0 -7,-3 -7,-7 0,-4 3,-7 7,-7l120 0c4,0 7,3 7,7 0,9 7,13 13,13 5,0 12,-4 12,-13 0,-4 3,-7 7,-7 4,0 7,3 7,7 0,17 -13,26 -26,26zm-330 0c-13,0 -27,-9 -27,-26 0,-4 3,-7 7,-7 4,0 7,3 7,7 0,9 7,12 13,12 6,0 13,-3 13,-12 0,-4 3,-7 7,-7l120 0c4,0 7,3 7,7 0,4 -3,7 -7,7l-114 0c-3,13 -14,19 -26,19z" id="id_173" style="fill: rgb(219, 191, 9);"></path>
   </g>
   <g>
    <path class="fil0" d="M421 353c-25,0 -48,-9 -65,-26 -17,-18 -27,-41 -27,-65l0 -4c0,-1 0,-1 0,-2 1,-1 1,-2 1,-2l84 -115 0 -31c0,-4 3,-7 7,-7 4,0 7,3 7,7l0 31 83 115c0,0 0,1 1,2 0,0 0,1 0,2l0 4c0,24 -10,47 -27,65 -17,17 -40,26 -64,26zm-78 -88c2,42 35,74 78,74 42,0 75,-33 77,-74l-155 0zm7 -14l141 0 -70 -98 -71 98z" id="id_174" style="fill: rgb(219, 191, 9);"></path>
   </g>
   <g>
    <path class="fil0" d="M91 353c-24,0 -47,-9 -64,-26 -17,-18 -27,-41 -27,-65l0 -4c0,-1 0,-1 0,-2 1,-1 1,-2 1,-2l83 -115 0 -31c0,-4 3,-7 7,-7 4,0 7,3 7,7l0 31 84 115c0,0 0,1 1,2 0,0 0,1 0,2l0 4c0,25 -10,47 -27,65 -17,17 -40,26 -65,26zm-77 -88c2,41 36,74 77,74 43,0 76,-32 78,-74l-155 0zm7 -14l141 0 -71 -98 -70 98z" id="id_175" style="fill: rgb(219, 191, 9);"></path>
   </g>
   <g>
    <path class="fil0" d="M281 95c-4,0 -7,-3 -7,-7l0 -25c0,-6 -3,-12 -7,-14 -1,-1 -3,-3 -3,-5 0,-2 0,-4 1,-5 3,-3 4,-7 4,-10 0,-8 -6,-14 -13,-14 -8,0 -14,7 -14,14 0,3 1,6 4,9 1,2 2,4 2,6 0,2 -1,4 -3,5 -4,2 -7,8 -7,14l0 25c0,4 -3,7 -7,7 -4,0 -7,-3 -7,-7l0 -25c0,-8 3,-15 8,-21 -3,-4 -4,-8 -4,-13 0,-15 13,-28 28,-28 15,0 27,13 27,28 0,4 -1,9 -3,13 5,5 8,13 8,21l0 25c0,4 -3,7 -7,7z" id="id_176" style="fill: rgb(219, 191, 9);"></path>
   </g>
   <g>
    <path class="fil0" d="M342 482c-4,0 -7,-3 -7,-7l0 -22 -158 0 0 22c0,4 -3,7 -7,7 -4,0 -7,-3 -7,-7l0 -29c0,-4 3,-7 7,-7l172 0c4,0 7,3 7,7l0 29c0,4 -3,7 -7,7z" id="id_177" style="fill: rgb(219, 191, 9);"></path>
   </g>
   <g>
    <path class="fil0" d="M372 511l-233 0c-4,0 -7,-3 -7,-7l0 -29c0,-4 3,-7 7,-7l233 0c4,0 7,3 7,7l0 29c0,4 -3,7 -7,7zm-226 -14l219 0 0 -15 -219 0 0 15z" id="id_178" style="fill: rgb(219, 191, 9);"></path>
   </g>
  </g>
 </g>
</svg>