<svg xmlns="http://www.w3.org/2000/svg" xml:space="preserve" width="1.70666in" height="1.70666in" version="1.1" style="shape-rendering:geometricPrecision; text-rendering:geometricPrecision; image-rendering:optimizeQuality; fill-rule:evenodd; clip-rule:evenodd" viewBox="0 0 1706.66 1706.66" xmlns:xlink="http://www.w3.org/1999/xlink" xmlns:xodm="http://www.corel.com/coreldraw/odm/2003">
 <defs>
  <style type="text/css">
   
    .fil0 {fill:black}
   
  </style>
 </defs>
 <g id="Layer_x0020_1">
  <metadata id="CorelCorpID_0Corel-Layer"></metadata>
  <path class="fil0" d="M1334.81 1554.72l-686.53 0c-11.11,0 -20,-9.02 -20,-20l0 -122.78 -207.22 0 0 122.78c0,10.97 -8.89,20 -20,20l-163.19 0c-90.42,0 -163.89,-73.47 -163.89,-163.89 0,-90.42 73.47,-163.89 163.89,-163.89l1097.08 0c10.97,0 20,9.03 20,20l0 287.78c-0.14,10.97 -9.03,20 -20.14,20zm-666.53 -40l646.53 0 0 -247.78 -1076.94 0c-68.33,0 -123.89,55.56 -123.89,123.89 0,68.33 55.55,123.89 123.89,123.89l143.33 0 0 -122.78c0,-10.97 8.89,-20 20,-20l247.22 0.01c11.11,0 20,9.03 20,20l-0.01 122.77 -0.14 0z" id="id_179" style="fill: rgb(219, 191, 9);"></path>
  <path class="fil0" d="M93.98 1411.53c-11.11,0 -20,-9.03 -20,-20l0 -1240.97c0,-83.06 67.5,-150.56 150.56,-150.56l1110.41 0c10.97,0 20,8.89 20,20l0 291.11c0,26.33 -40,26.34 -40,0l0 -271.11 -1090.28 0c-60.97,0 -110.55,49.58 -110.55,110.56l0 1240.97c-0.14,10.97 -9.03,20 -20.14,20zm1240.83 -144.58c-10.97,0 -20,-9.03 -20,-20l0 -291.11c0,-26.3 40,-26.3 40,0l0 291.11c-0.01,10.97 -8.89,20 -20,20z" id="id_180" style="fill: rgb(219, 191, 9);"></path>
  <path class="fil0" d="M1219.25 1411.94l-963.89 0c-26.33,0 -26.34,-40 0,-40l963.89 0.01c26.23,0 26.4,40 0,40z" id="id_181" style="fill: rgb(219, 191, 9);"></path>
  <path class="fil0" d="M401.06 1706.66c-10.78,0 -20,-8.94 -20,-20l0 -294.72c0,-10.97 8.89,-20 20,-20l247.22 0c11.11,0 20,9.03 20,20l-0 294.72c0,18.79 -23.62,26.91 -35.41,12.78l-108.2 -129.03 -108.2 129.03c-3.89,4.72 -9.58,7.22 -15.42,7.22zm123.61 -187.36c5.98,0 11.53,2.64 15.28,7.09l88.2 105.28 0 -219.72 -207.08 -0.01 0 219.72 88.19 -105.28c3.89,-4.44 9.58,-7.08 15.42,-7.08z" id="id_182" style="fill: rgb(219, 191, 9);"></path>
  <path class="fil0" d="M327.45 1266.94c-11.11,0 -20,-9.03 -20,-20l0 -1226.94c0,-26.36 40,-26.37 40,0l0 1226.94c-0.01,10.97 -8.89,20 -20,20z" id="id_183" style="fill: rgb(219, 191, 9);"></path>
  <path class="fil0" d="M1334.81 975.83c-2.22,0 -4.44,-0.41 -6.53,-1.11 -333.2,-115.97 -292.5,-506.25 -286.81,-550.28 1.25,-9.45 9.03,-17.64 18.48,-18.33 214.22,-15.78 247.58,-114.86 275,-114.86 6.39,0 12.36,3.06 16.11,8.19 0.56,0.83 70.7,92.78 258.61,106.67 9.86,0.69 17.78,8.61 18.47,18.47 5.7,43.89 46.67,434.17 -286.8,550.14 -2.08,0.7 -4.3,1.11 -6.52,1.11zm-255.28 -531.39c-7.36,79.58 -17.78,390 255.28,490 273.33,-100 262.78,-410.42 255.28,-490 -146.67,-14.58 -224.3,-73.33 -255.28,-103.61 -30.97,30.28 -108.61,89.02 -255.28,103.61z" id="id_184" style="fill: rgb(219, 191, 9);"></path>
  <path class="fil0" d="M1297.17 714.17c-14.57,0 -42.84,-34.52 -60.41,-52.08 -18.48,-18.48 9.43,-47.07 28.33,-28.33l32.09 32.09 107.36 -107.36c18.54,-18.54 46.97,9.53 28.33,28.33l-121.53 121.53c-3.9,3.89 -9.03,5.83 -14.17,5.83z" id="id_185" style="fill: rgb(219, 191, 9);"></path>
  <path class="fil0" d="M897.87 713.2l-462.64 0c-26.36,0 -26.37,-40 0,-40l462.64 0c26.33,0 26.33,40 0,40z" id="id_186" style="fill: rgb(219, 191, 9);"></path>
  <path class="fil0" d="M986.47 903.33l-551.39 0c-26.33,0 -26.34,-40 0,-40l551.39 0.01c26.23,0 26.4,40 0,40z" id="id_187" style="fill: rgb(219, 191, 9);"></path>
  <path class="fil0" d="M1110.09 1093.33l-675 0c-26.33,0 -26.34,-40 0,-40l675 0c26.24,0 26.4,40 0,40z" id="id_188" style="fill: rgb(219, 191, 9);"></path>
 </g>
</svg>